<?xml version="1.0" encoding="utf-8"?>
<!-- Generator: Adobe Illustrator 27.0.0, SVG Export Plug-In . SVG Version: 6.00 Build 0)  -->
<svg version="1.1" id="图层_1" xmlns="http://www.w3.org/2000/svg" xmlns:xlink="http://www.w3.org/1999/xlink" x="0px" y="0px"
	 viewBox="0 0 128 128" style="enable-background:new 0 0 128 128;" xml:space="preserve">
<style type="text/css">
	.st0{clip-path:url(#SVGID_00000036222146671462900950000017770030124175217078_);fill:#F2F0EC;}
	.st1{clip-path:url(#SVGID_00000036222146671462900950000017770030124175217078_);fill:#F1EFEB;}
	.st2{clip-path:url(#SVGID_00000036222146671462900950000017770030124175217078_);fill:#F1EEEA;}
	.st3{clip-path:url(#SVGID_00000036222146671462900950000017770030124175217078_);fill:#F0EDE9;}
	.st4{clip-path:url(#SVGID_00000036222146671462900950000017770030124175217078_);fill:#EFEDE8;}
	.st5{clip-path:url(#SVGID_00000036222146671462900950000017770030124175217078_);fill:#EEECE7;}
	.st6{clip-path:url(#SVGID_00000036222146671462900950000017770030124175217078_);fill:#EEEBE6;}
	.st7{clip-path:url(#SVGID_00000036222146671462900950000017770030124175217078_);fill:#EDEAE5;}
	.st8{clip-path:url(#SVGID_00000036222146671462900950000017770030124175217078_);fill:#ECE9E4;}
	.st9{clip-path:url(#SVGID_00000036222146671462900950000017770030124175217078_);fill:#EBE8E3;}
	.st10{clip-path:url(#SVGID_00000036222146671462900950000017770030124175217078_);fill:#EBE8E2;}
	.st11{clip-path:url(#SVGID_00000036222146671462900950000017770030124175217078_);fill:#EAE7E1;}
	.st12{clip-path:url(#SVGID_00000036222146671462900950000017770030124175217078_);fill:#E9E6E0;}
	.st13{clip-path:url(#SVGID_00000036222146671462900950000017770030124175217078_);fill:#E9E5DF;}
	.st14{clip-path:url(#SVGID_00000036222146671462900950000017770030124175217078_);fill:#E8E4DE;}
	.st15{clip-path:url(#SVGID_00000036222146671462900950000017770030124175217078_);fill:#E7E3DD;}
	.st16{clip-path:url(#SVGID_00000036222146671462900950000017770030124175217078_);fill:#E6E2DC;}
	.st17{clip-path:url(#SVGID_00000036222146671462900950000017770030124175217078_);fill:#E6E2DB;}
	.st18{clip-path:url(#SVGID_00000036222146671462900950000017770030124175217078_);fill:#E5E1DA;}
	.st19{clip-path:url(#SVGID_00000036222146671462900950000017770030124175217078_);fill:#E4E0D9;}
	.st20{clip-path:url(#SVGID_00000036222146671462900950000017770030124175217078_);fill:#E4DFD8;}
	.st21{clip-path:url(#SVGID_00000036222146671462900950000017770030124175217078_);fill:#E3DED6;}
	.st22{clip-path:url(#SVGID_00000036222146671462900950000017770030124175217078_);fill:#E2DDD5;}
	.st23{clip-path:url(#SVGID_00000036222146671462900950000017770030124175217078_);fill:#E1DCD4;}
	.st24{clip-path:url(#SVGID_00000036222146671462900950000017770030124175217078_);fill:#E1DCD3;}
	.st25{clip-path:url(#SVGID_00000036222146671462900950000017770030124175217078_);fill:#E0DBD2;}
	.st26{clip-path:url(#SVGID_00000036222146671462900950000017770030124175217078_);fill:#DFDAD1;}
	.st27{clip-path:url(#SVGID_00000036222146671462900950000017770030124175217078_);fill:#DED9D0;}
	.st28{clip-path:url(#SVGID_00000036222146671462900950000017770030124175217078_);fill:#DED8CF;}
	.st29{clip-path:url(#SVGID_00000036222146671462900950000017770030124175217078_);fill:#DDD7CE;}
	.st30{clip-path:url(#SVGID_00000036222146671462900950000017770030124175217078_);fill:#DCD7CD;}
	.st31{clip-path:url(#SVGID_00000036222146671462900950000017770030124175217078_);fill:#DCD6CC;}
	.st32{clip-path:url(#SVGID_00000036222146671462900950000017770030124175217078_);fill:#DBD5CB;}
	.st33{clip-path:url(#SVGID_00000036222146671462900950000017770030124175217078_);fill:#DAD4CA;}
	.st34{clip-path:url(#SVGID_00000036222146671462900950000017770030124175217078_);fill:#D9D3C9;}
	.st35{clip-path:url(#SVGID_00000036222146671462900950000017770030124175217078_);fill:#D9D2C8;}
	.st36{clip-path:url(#SVGID_00000036222146671462900950000017770030124175217078_);fill:#D8D1C7;}
	.st37{clip-path:url(#SVGID_00000036222146671462900950000017770030124175217078_);fill:#D7D1C6;}
	.st38{clip-path:url(#SVGID_00000036222146671462900950000017770030124175217078_);fill:#D6D0C5;}
	.st39{clip-path:url(#SVGID_00000036222146671462900950000017770030124175217078_);fill:#D6CFC4;}
	.st40{clip-path:url(#SVGID_00000036222146671462900950000017770030124175217078_);fill:#D5CEC3;}
	.st41{clip-path:url(#SVGID_00000113328936744807903620000000866269707536348087_);fill:#ECEAE6;}
	.st42{clip-path:url(#SVGID_00000113328936744807903620000000866269707536348087_);fill:#EBE9E5;}
	.st43{clip-path:url(#SVGID_00000113328936744807903620000000866269707536348087_);fill:#EAE8E4;}
	.st44{clip-path:url(#SVGID_00000113328936744807903620000000866269707536348087_);fill:#EAE7E3;}
	.st45{clip-path:url(#SVGID_00000113328936744807903620000000866269707536348087_);fill:#E9E6E2;}
	.st46{clip-path:url(#SVGID_00000113328936744807903620000000866269707536348087_);fill:#E8E6E1;}
	.st47{clip-path:url(#SVGID_00000113328936744807903620000000866269707536348087_);fill:#E7E5E0;}
	.st48{clip-path:url(#SVGID_00000113328936744807903620000000866269707536348087_);fill:#E7E4DF;}
	.st49{clip-path:url(#SVGID_00000113328936744807903620000000866269707536348087_);fill:#E6E3DE;}
	.st50{clip-path:url(#SVGID_00000113328936744807903620000000866269707536348087_);fill:#E5E2DD;}
	.st51{clip-path:url(#SVGID_00000113328936744807903620000000866269707536348087_);fill:#E4E1DC;}
	.st52{clip-path:url(#SVGID_00000113328936744807903620000000866269707536348087_);fill:#E3E0DB;}
	.st53{clip-path:url(#SVGID_00000113328936744807903620000000866269707536348087_);fill:#E3DFDA;}
	.st54{clip-path:url(#SVGID_00000113328936744807903620000000866269707536348087_);fill:#E2DFD9;}
	.st55{clip-path:url(#SVGID_00000113328936744807903620000000866269707536348087_);fill:#E1DED8;}
	.st56{clip-path:url(#SVGID_00000113328936744807903620000000866269707536348087_);fill:#E0DDD7;}
	.st57{clip-path:url(#SVGID_00000113328936744807903620000000866269707536348087_);fill:#DFDCD6;}
	.st58{clip-path:url(#SVGID_00000113328936744807903620000000866269707536348087_);fill:#DFDBD5;}
	.st59{clip-path:url(#SVGID_00000113328936744807903620000000866269707536348087_);fill:#DEDAD4;}
	.st60{clip-path:url(#SVGID_00000113328936744807903620000000866269707536348087_);fill:#DDD9D3;}
	.st61{clip-path:url(#SVGID_00000113328936744807903620000000866269707536348087_);fill:#DCD8D2;}
	.st62{clip-path:url(#SVGID_00000113328936744807903620000000866269707536348087_);fill:#DCD8D1;}
	.st63{clip-path:url(#SVGID_00000113328936744807903620000000866269707536348087_);fill:#DBD7CF;}
	.st64{clip-path:url(#SVGID_00000113328936744807903620000000866269707536348087_);fill:#DAD6CE;}
	.st65{clip-path:url(#SVGID_00000113328936744807903620000000866269707536348087_);fill:#D9D5CD;}
	.st66{clip-path:url(#SVGID_00000113328936744807903620000000866269707536348087_);fill:#D8D4CC;}
	.st67{clip-path:url(#SVGID_00000113328936744807903620000000866269707536348087_);fill:#D8D3CB;}
	.st68{clip-path:url(#SVGID_00000113328936744807903620000000866269707536348087_);fill:#D7D2CA;}
	.st69{clip-path:url(#SVGID_00000113328936744807903620000000866269707536348087_);fill:#D6D1C9;}
	.st70{clip-path:url(#SVGID_00000113328936744807903620000000866269707536348087_);fill:#D5D0C8;}
	.st71{clip-path:url(#SVGID_00000113328936744807903620000000866269707536348087_);fill:#D4D0C7;}
	.st72{clip-path:url(#SVGID_00000113328936744807903620000000866269707536348087_);fill:#D4CFC6;}
	.st73{clip-path:url(#SVGID_00000113328936744807903620000000866269707536348087_);fill:#D3CEC5;}
	.st74{clip-path:url(#SVGID_00000113328936744807903620000000866269707536348087_);fill:#D2CDC4;}
	.st75{clip-path:url(#SVGID_00000113328936744807903620000000866269707536348087_);fill:#D1CCC3;}
	.st76{clip-path:url(#SVGID_00000113328936744807903620000000866269707536348087_);fill:#D1CBC2;}
	.st77{clip-path:url(#SVGID_00000113328936744807903620000000866269707536348087_);fill:#D0CAC1;}
	.st78{clip-path:url(#SVGID_00000113328936744807903620000000866269707536348087_);fill:#CFC9C0;}
	.st79{clip-path:url(#SVGID_00000113328936744807903620000000866269707536348087_);fill:#CEC9BF;}
	.st80{clip-path:url(#SVGID_00000113328936744807903620000000866269707536348087_);fill:#CDC8BE;}
	.st81{clip-path:url(#SVGID_00000113328936744807903620000000866269707536348087_);fill:#CDC7BD;}
	.st82{clip-path:url(#SVGID_00000113328936744807903620000000866269707536348087_);fill:#CCC6BC;}
	.st83{clip-path:url(#SVGID_00000113328936744807903620000000866269707536348087_);fill:#CBC5BB;}
	.st84{clip-path:url(#SVGID_00000042718866577409172500000003490004957312412332_);fill:#F2F0EC;}
	.st85{clip-path:url(#SVGID_00000042718866577409172500000003490004957312412332_);fill:#F1EFEB;}
	.st86{clip-path:url(#SVGID_00000042718866577409172500000003490004957312412332_);fill:#F1EEEA;}
	.st87{clip-path:url(#SVGID_00000042718866577409172500000003490004957312412332_);fill:#F0EDE9;}
	.st88{clip-path:url(#SVGID_00000042718866577409172500000003490004957312412332_);fill:#EFEDE8;}
	.st89{clip-path:url(#SVGID_00000042718866577409172500000003490004957312412332_);fill:#EEECE7;}
	.st90{clip-path:url(#SVGID_00000042718866577409172500000003490004957312412332_);fill:#EEEBE6;}
	.st91{clip-path:url(#SVGID_00000042718866577409172500000003490004957312412332_);fill:#EDEAE5;}
	.st92{clip-path:url(#SVGID_00000042718866577409172500000003490004957312412332_);fill:#ECE9E4;}
	.st93{clip-path:url(#SVGID_00000042718866577409172500000003490004957312412332_);fill:#EBE8E3;}
	.st94{clip-path:url(#SVGID_00000042718866577409172500000003490004957312412332_);fill:#EBE8E2;}
	.st95{clip-path:url(#SVGID_00000042718866577409172500000003490004957312412332_);fill:#EAE7E1;}
	.st96{clip-path:url(#SVGID_00000042718866577409172500000003490004957312412332_);fill:#E9E6E0;}
	.st97{clip-path:url(#SVGID_00000042718866577409172500000003490004957312412332_);fill:#E9E5DF;}
	.st98{clip-path:url(#SVGID_00000042718866577409172500000003490004957312412332_);fill:#E8E4DE;}
	.st99{clip-path:url(#SVGID_00000042718866577409172500000003490004957312412332_);fill:#E7E3DD;}
	.st100{clip-path:url(#SVGID_00000042718866577409172500000003490004957312412332_);fill:#E6E2DC;}
	.st101{clip-path:url(#SVGID_00000042718866577409172500000003490004957312412332_);fill:#E6E2DB;}
	.st102{clip-path:url(#SVGID_00000042718866577409172500000003490004957312412332_);fill:#E5E1DA;}
	.st103{clip-path:url(#SVGID_00000042718866577409172500000003490004957312412332_);fill:#E4E0D9;}
	.st104{clip-path:url(#SVGID_00000042718866577409172500000003490004957312412332_);fill:#E4DFD8;}
	.st105{clip-path:url(#SVGID_00000042718866577409172500000003490004957312412332_);fill:#E3DED6;}
	.st106{clip-path:url(#SVGID_00000042718866577409172500000003490004957312412332_);fill:#E2DDD5;}
	.st107{clip-path:url(#SVGID_00000042718866577409172500000003490004957312412332_);fill:#E1DCD4;}
	.st108{clip-path:url(#SVGID_00000042718866577409172500000003490004957312412332_);fill:#E1DCD3;}
	.st109{clip-path:url(#SVGID_00000042718866577409172500000003490004957312412332_);fill:#E0DBD2;}
	.st110{clip-path:url(#SVGID_00000042718866577409172500000003490004957312412332_);fill:#DFDAD1;}
	.st111{clip-path:url(#SVGID_00000042718866577409172500000003490004957312412332_);fill:#DED9D0;}
	.st112{clip-path:url(#SVGID_00000042718866577409172500000003490004957312412332_);fill:#DED8CF;}
	.st113{clip-path:url(#SVGID_00000042718866577409172500000003490004957312412332_);fill:#DDD7CE;}
	.st114{clip-path:url(#SVGID_00000042718866577409172500000003490004957312412332_);fill:#DCD7CD;}
	.st115{clip-path:url(#SVGID_00000042718866577409172500000003490004957312412332_);fill:#DCD6CC;}
	.st116{clip-path:url(#SVGID_00000042718866577409172500000003490004957312412332_);fill:#DBD5CB;}
	.st117{clip-path:url(#SVGID_00000042718866577409172500000003490004957312412332_);fill:#DAD4CA;}
	.st118{clip-path:url(#SVGID_00000042718866577409172500000003490004957312412332_);fill:#D9D3C9;}
	.st119{clip-path:url(#SVGID_00000042718866577409172500000003490004957312412332_);fill:#D9D2C8;}
	.st120{clip-path:url(#SVGID_00000042718866577409172500000003490004957312412332_);fill:#D8D1C7;}
	.st121{clip-path:url(#SVGID_00000042718866577409172500000003490004957312412332_);fill:#D7D1C6;}
	.st122{clip-path:url(#SVGID_00000042718866577409172500000003490004957312412332_);fill:#D6D0C5;}
	.st123{clip-path:url(#SVGID_00000042718866577409172500000003490004957312412332_);fill:#D6CFC4;}
	.st124{clip-path:url(#SVGID_00000042718866577409172500000003490004957312412332_);fill:#D5CEC3;}
	.st125{fill:#165CDD;}
</style>
<g>
	<g>
		<g>
			<g>
				<g>
					<defs>
						<path id="SVGID_1_" d="M2.92,120.81c0,3.45,2.79,6.24,6.24,6.24H117.2c2.63,0,7.88-1.31,7.88-6.57V7.52
							c0-3.63-2.94-6.57-6.57-6.57H9.49c-1.74,0-3.41,0.69-4.64,1.92c-1.23,1.23-1.92,2.9-1.92,4.64V120.81z"/>
					</defs>
					<clipPath id="SVGID_00000078021957005826499260000008722110041305607101_">
						<use xlink:href="#SVGID_1_"  style="overflow:visible;"/>
					</clipPath>
					
						<rect x="2.92" y="124.45" style="clip-path:url(#SVGID_00000078021957005826499260000008722110041305607101_);fill:#F2F0EC;" width="122.15" height="2.59"/>
					
						<rect x="2.92" y="121.41" style="clip-path:url(#SVGID_00000078021957005826499260000008722110041305607101_);fill:#F2F0EC;" width="122.15" height="3.04"/>
					
						<rect x="2.92" y="118.38" style="clip-path:url(#SVGID_00000078021957005826499260000008722110041305607101_);fill:#F1EFEB;" width="122.15" height="3.04"/>
					
						<rect x="2.92" y="115.34" style="clip-path:url(#SVGID_00000078021957005826499260000008722110041305607101_);fill:#F1EEEA;" width="122.15" height="3.04"/>
					
						<rect x="2.92" y="112.3" style="clip-path:url(#SVGID_00000078021957005826499260000008722110041305607101_);fill:#F0EDE9;" width="122.15" height="3.04"/>
					
						<rect x="2.92" y="109.26" style="clip-path:url(#SVGID_00000078021957005826499260000008722110041305607101_);fill:#EFEDE8;" width="122.15" height="3.04"/>
					
						<rect x="2.92" y="106.22" style="clip-path:url(#SVGID_00000078021957005826499260000008722110041305607101_);fill:#EEECE7;" width="122.15" height="3.04"/>
					
						<rect x="2.92" y="103.19" style="clip-path:url(#SVGID_00000078021957005826499260000008722110041305607101_);fill:#EEEBE6;" width="122.15" height="3.04"/>
					
						<rect x="2.92" y="100.15" style="clip-path:url(#SVGID_00000078021957005826499260000008722110041305607101_);fill:#EDEAE5;" width="122.15" height="3.04"/>
					
						<rect x="2.92" y="97.11" style="clip-path:url(#SVGID_00000078021957005826499260000008722110041305607101_);fill:#ECE9E4;" width="122.15" height="3.04"/>
					
						<rect x="2.92" y="94.07" style="clip-path:url(#SVGID_00000078021957005826499260000008722110041305607101_);fill:#EBE8E3;" width="122.15" height="3.04"/>
					
						<rect x="2.92" y="91.04" style="clip-path:url(#SVGID_00000078021957005826499260000008722110041305607101_);fill:#EBE8E2;" width="122.15" height="3.04"/>
					
						<rect x="2.92" y="88" style="clip-path:url(#SVGID_00000078021957005826499260000008722110041305607101_);fill:#EAE7E1;" width="122.15" height="3.04"/>
					
						<rect x="2.92" y="84.96" style="clip-path:url(#SVGID_00000078021957005826499260000008722110041305607101_);fill:#E9E6E0;" width="122.15" height="3.04"/>
					
						<rect x="2.92" y="81.92" style="clip-path:url(#SVGID_00000078021957005826499260000008722110041305607101_);fill:#E9E5DF;" width="122.15" height="3.04"/>
					
						<rect x="2.92" y="78.88" style="clip-path:url(#SVGID_00000078021957005826499260000008722110041305607101_);fill:#E8E4DE;" width="122.15" height="3.04"/>
					
						<rect x="2.92" y="75.85" style="clip-path:url(#SVGID_00000078021957005826499260000008722110041305607101_);fill:#E7E3DD;" width="122.15" height="3.04"/>
					
						<rect x="2.92" y="72.81" style="clip-path:url(#SVGID_00000078021957005826499260000008722110041305607101_);fill:#E6E2DC;" width="122.15" height="3.04"/>
					
						<rect x="2.92" y="69.77" style="clip-path:url(#SVGID_00000078021957005826499260000008722110041305607101_);fill:#E6E2DB;" width="122.15" height="3.04"/>
					
						<rect x="2.92" y="66.73" style="clip-path:url(#SVGID_00000078021957005826499260000008722110041305607101_);fill:#E5E1DA;" width="122.15" height="3.04"/>
					
						<rect x="2.92" y="63.7" style="clip-path:url(#SVGID_00000078021957005826499260000008722110041305607101_);fill:#E4E0D9;" width="122.15" height="3.04"/>
					
						<rect x="2.92" y="60.66" style="clip-path:url(#SVGID_00000078021957005826499260000008722110041305607101_);fill:#E4DFD8;" width="122.15" height="3.04"/>
					
						<rect x="2.92" y="57.62" style="clip-path:url(#SVGID_00000078021957005826499260000008722110041305607101_);fill:#E3DED6;" width="122.15" height="3.04"/>
					
						<rect x="2.92" y="54.58" style="clip-path:url(#SVGID_00000078021957005826499260000008722110041305607101_);fill:#E2DDD5;" width="122.15" height="3.04"/>
					
						<rect x="2.92" y="51.55" style="clip-path:url(#SVGID_00000078021957005826499260000008722110041305607101_);fill:#E1DCD4;" width="122.15" height="3.04"/>
					
						<rect x="2.92" y="48.51" style="clip-path:url(#SVGID_00000078021957005826499260000008722110041305607101_);fill:#E1DCD3;" width="122.15" height="3.04"/>
					
						<rect x="2.92" y="45.47" style="clip-path:url(#SVGID_00000078021957005826499260000008722110041305607101_);fill:#E0DBD2;" width="122.15" height="3.04"/>
					
						<rect x="2.92" y="42.43" style="clip-path:url(#SVGID_00000078021957005826499260000008722110041305607101_);fill:#DFDAD1;" width="122.15" height="3.04"/>
					
						<rect x="2.92" y="39.39" style="clip-path:url(#SVGID_00000078021957005826499260000008722110041305607101_);fill:#DED9D0;" width="122.15" height="3.04"/>
					
						<rect x="2.92" y="36.36" style="clip-path:url(#SVGID_00000078021957005826499260000008722110041305607101_);fill:#DED8CF;" width="122.15" height="3.04"/>
					
						<rect x="2.92" y="33.32" style="clip-path:url(#SVGID_00000078021957005826499260000008722110041305607101_);fill:#DDD7CE;" width="122.15" height="3.04"/>
					
						<rect x="2.92" y="30.28" style="clip-path:url(#SVGID_00000078021957005826499260000008722110041305607101_);fill:#DCD7CD;" width="122.15" height="3.04"/>
					
						<rect x="2.92" y="27.24" style="clip-path:url(#SVGID_00000078021957005826499260000008722110041305607101_);fill:#DCD6CC;" width="122.15" height="3.04"/>
					
						<rect x="2.92" y="24.21" style="clip-path:url(#SVGID_00000078021957005826499260000008722110041305607101_);fill:#DBD5CB;" width="122.15" height="3.04"/>
					
						<rect x="2.92" y="21.17" style="clip-path:url(#SVGID_00000078021957005826499260000008722110041305607101_);fill:#DAD4CA;" width="122.15" height="3.04"/>
					
						<rect x="2.92" y="18.13" style="clip-path:url(#SVGID_00000078021957005826499260000008722110041305607101_);fill:#D9D3C9;" width="122.15" height="3.04"/>
					
						<rect x="2.92" y="15.09" style="clip-path:url(#SVGID_00000078021957005826499260000008722110041305607101_);fill:#D9D2C8;" width="122.15" height="3.04"/>
					
						<rect x="2.92" y="12.05" style="clip-path:url(#SVGID_00000078021957005826499260000008722110041305607101_);fill:#D8D1C7;" width="122.15" height="3.04"/>
					
						<rect x="2.92" y="9.02" style="clip-path:url(#SVGID_00000078021957005826499260000008722110041305607101_);fill:#D7D1C6;" width="122.15" height="3.04"/>
					
						<rect x="2.92" y="5.98" style="clip-path:url(#SVGID_00000078021957005826499260000008722110041305607101_);fill:#D6D0C5;" width="122.15" height="3.04"/>
					
						<rect x="2.92" y="2.94" style="clip-path:url(#SVGID_00000078021957005826499260000008722110041305607101_);fill:#D6CFC4;" width="122.15" height="3.04"/>
					
						<rect x="2.92" y="0.95" style="clip-path:url(#SVGID_00000078021957005826499260000008722110041305607101_);fill:#D5CEC3;" width="122.15" height="1.99"/>
				</g>
			</g>
			<g>
				<g>
					<defs>
						<path id="SVGID_00000154400638766535437710000014680665547139224453_" d="M118.51,0.95c3.63,0,6.57,2.94,6.57,6.57v112.96
							c0,5.25-5.25,6.57-7.88,6.57H9.16c-3.45,0-6.24-2.79-6.24-6.24V7.52c0-1.74,0.69-3.41,1.92-4.64c1.23-1.23,2.9-1.92,4.64-1.92
							H118.51 M118.51,0H9.49c-2.01,0-3.9,0.78-5.32,2.2c-1.4,1.4-2.2,3.34-2.2,5.32v113.28c0,3.97,3.23,7.19,7.19,7.19H117.2
							c3.06,0,8.83-1.57,8.83-7.52V7.52C126.03,3.37,122.66,0,118.51,0L118.51,0z"/>
					</defs>
					<clipPath id="SVGID_00000045585143659550174080000017294570402949674164_">
						<use xlink:href="#SVGID_00000154400638766535437710000014680665547139224453_"  style="overflow:visible;"/>
					</clipPath>
					
						<rect x="1.97" style="clip-path:url(#SVGID_00000045585143659550174080000017294570402949674164_);fill:#ECEAE6;" width="2.89" height="128"/>
					
						<rect x="4.85" style="clip-path:url(#SVGID_00000045585143659550174080000017294570402949674164_);fill:#EBE9E5;" width="2.89" height="128"/>
					
						<rect x="7.74" style="clip-path:url(#SVGID_00000045585143659550174080000017294570402949674164_);fill:#EAE8E4;" width="2.89" height="128"/>
					
						<rect x="10.63" style="clip-path:url(#SVGID_00000045585143659550174080000017294570402949674164_);fill:#EAE7E3;" width="2.89" height="128"/>
					
						<rect x="13.51" style="clip-path:url(#SVGID_00000045585143659550174080000017294570402949674164_);fill:#E9E6E2;" width="2.89" height="128"/>
					
						<rect x="16.4" style="clip-path:url(#SVGID_00000045585143659550174080000017294570402949674164_);fill:#E8E6E1;" width="2.89" height="128"/>
					
						<rect x="19.28" style="clip-path:url(#SVGID_00000045585143659550174080000017294570402949674164_);fill:#E7E5E0;" width="2.89" height="128"/>
					
						<rect x="22.17" style="clip-path:url(#SVGID_00000045585143659550174080000017294570402949674164_);fill:#E7E4DF;" width="2.89" height="128"/>
					
						<rect x="25.05" style="clip-path:url(#SVGID_00000045585143659550174080000017294570402949674164_);fill:#E6E3DE;" width="2.89" height="128"/>
					
						<rect x="27.94" style="clip-path:url(#SVGID_00000045585143659550174080000017294570402949674164_);fill:#E5E2DD;" width="2.89" height="128"/>
					
						<rect x="30.82" style="clip-path:url(#SVGID_00000045585143659550174080000017294570402949674164_);fill:#E4E1DC;" width="2.89" height="128"/>
					
						<rect x="33.71" style="clip-path:url(#SVGID_00000045585143659550174080000017294570402949674164_);fill:#E3E0DB;" width="2.89" height="128"/>
					
						<rect x="36.59" style="clip-path:url(#SVGID_00000045585143659550174080000017294570402949674164_);fill:#E3DFDA;" width="2.89" height="128"/>
					
						<rect x="39.48" style="clip-path:url(#SVGID_00000045585143659550174080000017294570402949674164_);fill:#E2DFD9;" width="2.89" height="128"/>
					
						<rect x="42.36" style="clip-path:url(#SVGID_00000045585143659550174080000017294570402949674164_);fill:#E1DED8;" width="2.89" height="128"/>
					
						<rect x="45.25" style="clip-path:url(#SVGID_00000045585143659550174080000017294570402949674164_);fill:#E0DDD7;" width="2.89" height="128"/>
					
						<rect x="48.13" style="clip-path:url(#SVGID_00000045585143659550174080000017294570402949674164_);fill:#DFDCD6;" width="2.89" height="128"/>
					
						<rect x="51.02" style="clip-path:url(#SVGID_00000045585143659550174080000017294570402949674164_);fill:#DFDBD5;" width="2.89" height="128"/>
					
						<rect x="53.9" style="clip-path:url(#SVGID_00000045585143659550174080000017294570402949674164_);fill:#DEDAD4;" width="2.89" height="128"/>
					
						<rect x="56.79" style="clip-path:url(#SVGID_00000045585143659550174080000017294570402949674164_);fill:#DDD9D3;" width="2.89" height="128"/>
					
						<rect x="59.67" style="clip-path:url(#SVGID_00000045585143659550174080000017294570402949674164_);fill:#DCD8D2;" width="2.89" height="128"/>
					
						<rect x="62.56" style="clip-path:url(#SVGID_00000045585143659550174080000017294570402949674164_);fill:#DCD8D1;" width="2.89" height="128"/>
					
						<rect x="65.44" style="clip-path:url(#SVGID_00000045585143659550174080000017294570402949674164_);fill:#DBD7CF;" width="2.89" height="128"/>
					
						<rect x="68.33" style="clip-path:url(#SVGID_00000045585143659550174080000017294570402949674164_);fill:#DAD6CE;" width="2.89" height="128"/>
					
						<rect x="71.21" style="clip-path:url(#SVGID_00000045585143659550174080000017294570402949674164_);fill:#D9D5CD;" width="2.89" height="128"/>
					
						<rect x="74.1" style="clip-path:url(#SVGID_00000045585143659550174080000017294570402949674164_);fill:#D8D4CC;" width="2.89" height="128"/>
					
						<rect x="76.98" style="clip-path:url(#SVGID_00000045585143659550174080000017294570402949674164_);fill:#D8D3CB;" width="2.89" height="128"/>
					
						<rect x="79.87" style="clip-path:url(#SVGID_00000045585143659550174080000017294570402949674164_);fill:#D7D2CA;" width="2.89" height="128"/>
					
						<rect x="82.75" style="clip-path:url(#SVGID_00000045585143659550174080000017294570402949674164_);fill:#D6D1C9;" width="2.89" height="128"/>
					
						<rect x="85.64" style="clip-path:url(#SVGID_00000045585143659550174080000017294570402949674164_);fill:#D5D0C8;" width="2.89" height="128"/>
					
						<rect x="88.52" style="clip-path:url(#SVGID_00000045585143659550174080000017294570402949674164_);fill:#D4D0C7;" width="2.89" height="128"/>
					
						<rect x="91.41" style="clip-path:url(#SVGID_00000045585143659550174080000017294570402949674164_);fill:#D4CFC6;" width="2.89" height="128"/>
					
						<rect x="94.29" style="clip-path:url(#SVGID_00000045585143659550174080000017294570402949674164_);fill:#D3CEC5;" width="2.89" height="128"/>
					
						<rect x="97.18" style="clip-path:url(#SVGID_00000045585143659550174080000017294570402949674164_);fill:#D2CDC4;" width="2.89" height="128"/>
					
						<rect x="100.06" style="clip-path:url(#SVGID_00000045585143659550174080000017294570402949674164_);fill:#D1CCC3;" width="2.89" height="128"/>
					
						<rect x="102.95" style="clip-path:url(#SVGID_00000045585143659550174080000017294570402949674164_);fill:#D1CBC2;" width="2.89" height="128"/>
					
						<rect x="105.83" style="clip-path:url(#SVGID_00000045585143659550174080000017294570402949674164_);fill:#D0CAC1;" width="2.89" height="128"/>
					
						<rect x="108.72" style="clip-path:url(#SVGID_00000045585143659550174080000017294570402949674164_);fill:#CFC9C0;" width="2.89" height="128"/>
					
						<rect x="111.6" style="clip-path:url(#SVGID_00000045585143659550174080000017294570402949674164_);fill:#CEC9BF;" width="2.89" height="128"/>
					
						<rect x="114.49" style="clip-path:url(#SVGID_00000045585143659550174080000017294570402949674164_);fill:#CDC8BE;" width="2.89" height="128"/>
					
						<rect x="117.37" style="clip-path:url(#SVGID_00000045585143659550174080000017294570402949674164_);fill:#CDC7BD;" width="2.89" height="128"/>
					
						<rect x="120.26" style="clip-path:url(#SVGID_00000045585143659550174080000017294570402949674164_);fill:#CCC6BC;" width="2.89" height="128"/>
					
						<rect x="123.15" style="clip-path:url(#SVGID_00000045585143659550174080000017294570402949674164_);fill:#CBC5BB;" width="2.89" height="128"/>
					
						<rect x="2.92" y="0.95" style="clip-path:url(#SVGID_00000045585143659550174080000017294570402949674164_);fill:#ECEAE6;" width="1.93" height="126.09"/>
					
						<rect x="4.85" y="0.95" style="clip-path:url(#SVGID_00000045585143659550174080000017294570402949674164_);fill:#EBE9E5;" width="2.89" height="126.09"/>
					
						<rect x="7.74" y="0.95" style="clip-path:url(#SVGID_00000045585143659550174080000017294570402949674164_);fill:#EAE8E4;" width="2.89" height="126.09"/>
					
						<rect x="10.63" y="0.95" style="clip-path:url(#SVGID_00000045585143659550174080000017294570402949674164_);fill:#EAE7E3;" width="2.89" height="126.09"/>
					
						<rect x="13.51" y="0.95" style="clip-path:url(#SVGID_00000045585143659550174080000017294570402949674164_);fill:#E9E6E2;" width="2.89" height="126.09"/>
					
						<rect x="16.4" y="0.95" style="clip-path:url(#SVGID_00000045585143659550174080000017294570402949674164_);fill:#E8E6E1;" width="2.89" height="126.09"/>
					
						<rect x="19.28" y="0.95" style="clip-path:url(#SVGID_00000045585143659550174080000017294570402949674164_);fill:#E7E5E0;" width="2.89" height="126.09"/>
					
						<rect x="22.17" y="0.95" style="clip-path:url(#SVGID_00000045585143659550174080000017294570402949674164_);fill:#E7E4DF;" width="2.89" height="126.09"/>
					
						<rect x="25.05" y="0.95" style="clip-path:url(#SVGID_00000045585143659550174080000017294570402949674164_);fill:#E6E3DE;" width="2.89" height="126.09"/>
					
						<rect x="27.94" y="0.95" style="clip-path:url(#SVGID_00000045585143659550174080000017294570402949674164_);fill:#E5E2DD;" width="2.89" height="126.09"/>
					
						<rect x="30.82" y="0.95" style="clip-path:url(#SVGID_00000045585143659550174080000017294570402949674164_);fill:#E4E1DC;" width="2.89" height="126.09"/>
					
						<rect x="33.71" y="0.95" style="clip-path:url(#SVGID_00000045585143659550174080000017294570402949674164_);fill:#E3E0DB;" width="2.89" height="126.09"/>
					
						<rect x="36.59" y="0.95" style="clip-path:url(#SVGID_00000045585143659550174080000017294570402949674164_);fill:#E3DFDA;" width="2.89" height="126.09"/>
					
						<rect x="39.48" y="0.95" style="clip-path:url(#SVGID_00000045585143659550174080000017294570402949674164_);fill:#E2DFD9;" width="2.89" height="126.09"/>
					
						<rect x="42.36" y="0.95" style="clip-path:url(#SVGID_00000045585143659550174080000017294570402949674164_);fill:#E1DED8;" width="2.89" height="126.09"/>
					
						<rect x="45.25" y="0.95" style="clip-path:url(#SVGID_00000045585143659550174080000017294570402949674164_);fill:#E0DDD7;" width="2.89" height="126.09"/>
					
						<rect x="48.13" y="0.95" style="clip-path:url(#SVGID_00000045585143659550174080000017294570402949674164_);fill:#DFDCD6;" width="2.89" height="126.09"/>
					
						<rect x="51.02" y="0.95" style="clip-path:url(#SVGID_00000045585143659550174080000017294570402949674164_);fill:#DFDBD5;" width="2.89" height="126.09"/>
					
						<rect x="53.9" y="0.95" style="clip-path:url(#SVGID_00000045585143659550174080000017294570402949674164_);fill:#DEDAD4;" width="2.89" height="126.09"/>
					
						<rect x="56.79" y="0.95" style="clip-path:url(#SVGID_00000045585143659550174080000017294570402949674164_);fill:#DDD9D3;" width="2.89" height="126.09"/>
					
						<rect x="59.67" y="0.95" style="clip-path:url(#SVGID_00000045585143659550174080000017294570402949674164_);fill:#DCD8D2;" width="2.89" height="126.09"/>
					
						<rect x="62.56" y="0.95" style="clip-path:url(#SVGID_00000045585143659550174080000017294570402949674164_);fill:#DCD8D1;" width="2.89" height="126.09"/>
					
						<rect x="65.44" y="0.95" style="clip-path:url(#SVGID_00000045585143659550174080000017294570402949674164_);fill:#DBD7CF;" width="2.89" height="126.09"/>
					
						<rect x="68.33" y="0.95" style="clip-path:url(#SVGID_00000045585143659550174080000017294570402949674164_);fill:#DAD6CE;" width="2.89" height="126.09"/>
					
						<rect x="71.21" y="0.95" style="clip-path:url(#SVGID_00000045585143659550174080000017294570402949674164_);fill:#D9D5CD;" width="2.89" height="126.09"/>
					
						<rect x="74.1" y="0.95" style="clip-path:url(#SVGID_00000045585143659550174080000017294570402949674164_);fill:#D8D4CC;" width="2.89" height="126.09"/>
					
						<rect x="76.98" y="0.95" style="clip-path:url(#SVGID_00000045585143659550174080000017294570402949674164_);fill:#D8D3CB;" width="2.89" height="126.09"/>
					
						<rect x="79.87" y="0.95" style="clip-path:url(#SVGID_00000045585143659550174080000017294570402949674164_);fill:#D7D2CA;" width="2.89" height="126.09"/>
					
						<rect x="82.75" y="0.95" style="clip-path:url(#SVGID_00000045585143659550174080000017294570402949674164_);fill:#D6D1C9;" width="2.89" height="126.09"/>
					
						<rect x="85.64" y="0.95" style="clip-path:url(#SVGID_00000045585143659550174080000017294570402949674164_);fill:#D5D0C8;" width="2.89" height="126.09"/>
					
						<rect x="88.52" y="0.95" style="clip-path:url(#SVGID_00000045585143659550174080000017294570402949674164_);fill:#D4D0C7;" width="2.89" height="126.09"/>
					
						<rect x="91.41" y="0.95" style="clip-path:url(#SVGID_00000045585143659550174080000017294570402949674164_);fill:#D4CFC6;" width="2.89" height="126.09"/>
					
						<rect x="94.29" y="0.95" style="clip-path:url(#SVGID_00000045585143659550174080000017294570402949674164_);fill:#D3CEC5;" width="2.89" height="126.09"/>
					
						<rect x="97.18" y="0.95" style="clip-path:url(#SVGID_00000045585143659550174080000017294570402949674164_);fill:#D2CDC4;" width="2.89" height="126.09"/>
					
						<rect x="100.06" y="0.95" style="clip-path:url(#SVGID_00000045585143659550174080000017294570402949674164_);fill:#D1CCC3;" width="2.89" height="126.09"/>
					
						<rect x="102.95" y="0.95" style="clip-path:url(#SVGID_00000045585143659550174080000017294570402949674164_);fill:#D1CBC2;" width="2.89" height="126.09"/>
					
						<rect x="105.83" y="0.95" style="clip-path:url(#SVGID_00000045585143659550174080000017294570402949674164_);fill:#D0CAC1;" width="2.89" height="126.09"/>
					
						<rect x="108.72" y="0.95" style="clip-path:url(#SVGID_00000045585143659550174080000017294570402949674164_);fill:#CFC9C0;" width="2.89" height="126.09"/>
					
						<rect x="111.6" y="0.95" style="clip-path:url(#SVGID_00000045585143659550174080000017294570402949674164_);fill:#CEC9BF;" width="2.89" height="126.09"/>
					
						<rect x="114.49" y="0.95" style="clip-path:url(#SVGID_00000045585143659550174080000017294570402949674164_);fill:#CDC8BE;" width="2.89" height="126.09"/>
					
						<rect x="117.37" y="0.95" style="clip-path:url(#SVGID_00000045585143659550174080000017294570402949674164_);fill:#CDC7BD;" width="2.89" height="126.09"/>
					
						<rect x="120.26" y="0.95" style="clip-path:url(#SVGID_00000045585143659550174080000017294570402949674164_);fill:#CCC6BC;" width="2.89" height="126.09"/>
					
						<rect x="123.15" y="0.95" style="clip-path:url(#SVGID_00000045585143659550174080000017294570402949674164_);fill:#CBC5BB;" width="1.93" height="126.09"/>
				</g>
			</g>
		</g>
		<g>
			<g>
				<defs>
					<path id="SVGID_00000090992019723495599700000012896347582559112595_" d="M6.23,117.4c0,3.45,2.79,6.24,6.24,6.24h101.85
						c2.48,0,7.45-1.24,7.45-6.21V10.58c0-3.43-2.78-6.21-6.21-6.21H12.44c-1.65,0-3.23,0.65-4.39,1.82
						c-1.16,1.16-1.82,2.75-1.82,4.39V117.4z"/>
				</defs>
				<clipPath id="SVGID_00000183944949228695021570000013405046389295765937_">
					<use xlink:href="#SVGID_00000090992019723495599700000012896347582559112595_"  style="overflow:visible;"/>
				</clipPath>
				
					<rect x="6.23" y="4.36" style="clip-path:url(#SVGID_00000183944949228695021570000013405046389295765937_);fill:#F2F0EC;" width="115.54" height="1.87"/>
				
					<rect x="6.23" y="6.23" style="clip-path:url(#SVGID_00000183944949228695021570000013405046389295765937_);fill:#F2F0EC;" width="115.54" height="2.84"/>
				
					<rect x="6.23" y="9.08" style="clip-path:url(#SVGID_00000183944949228695021570000013405046389295765937_);fill:#F1EFEB;" width="115.54" height="2.84"/>
				
					<rect x="6.23" y="11.92" style="clip-path:url(#SVGID_00000183944949228695021570000013405046389295765937_);fill:#F1EEEA;" width="115.54" height="2.84"/>
				
					<rect x="6.23" y="14.76" style="clip-path:url(#SVGID_00000183944949228695021570000013405046389295765937_);fill:#F0EDE9;" width="115.54" height="2.84"/>
				
					<rect x="6.23" y="17.6" style="clip-path:url(#SVGID_00000183944949228695021570000013405046389295765937_);fill:#EFEDE8;" width="115.54" height="2.84"/>
				
					<rect x="6.23" y="20.44" style="clip-path:url(#SVGID_00000183944949228695021570000013405046389295765937_);fill:#EEECE7;" width="115.54" height="2.84"/>
				
					<rect x="6.23" y="23.29" style="clip-path:url(#SVGID_00000183944949228695021570000013405046389295765937_);fill:#EEEBE6;" width="115.54" height="2.84"/>
				
					<rect x="6.23" y="26.13" style="clip-path:url(#SVGID_00000183944949228695021570000013405046389295765937_);fill:#EDEAE5;" width="115.54" height="2.84"/>
				
					<rect x="6.23" y="28.97" style="clip-path:url(#SVGID_00000183944949228695021570000013405046389295765937_);fill:#ECE9E4;" width="115.54" height="2.84"/>
				
					<rect x="6.23" y="31.81" style="clip-path:url(#SVGID_00000183944949228695021570000013405046389295765937_);fill:#EBE8E3;" width="115.54" height="2.84"/>
				
					<rect x="6.23" y="34.66" style="clip-path:url(#SVGID_00000183944949228695021570000013405046389295765937_);fill:#EBE8E2;" width="115.54" height="2.84"/>
				
					<rect x="6.23" y="37.5" style="clip-path:url(#SVGID_00000183944949228695021570000013405046389295765937_);fill:#EAE7E1;" width="115.54" height="2.84"/>
				
					<rect x="6.23" y="40.34" style="clip-path:url(#SVGID_00000183944949228695021570000013405046389295765937_);fill:#E9E6E0;" width="115.54" height="2.84"/>
				
					<rect x="6.23" y="43.18" style="clip-path:url(#SVGID_00000183944949228695021570000013405046389295765937_);fill:#E9E5DF;" width="115.54" height="2.84"/>
				
					<rect x="6.23" y="46.02" style="clip-path:url(#SVGID_00000183944949228695021570000013405046389295765937_);fill:#E8E4DE;" width="115.54" height="2.84"/>
				
					<rect x="6.23" y="48.87" style="clip-path:url(#SVGID_00000183944949228695021570000013405046389295765937_);fill:#E7E3DD;" width="115.54" height="2.84"/>
				
					<rect x="6.23" y="51.71" style="clip-path:url(#SVGID_00000183944949228695021570000013405046389295765937_);fill:#E6E2DC;" width="115.54" height="2.84"/>
				
					<rect x="6.23" y="54.55" style="clip-path:url(#SVGID_00000183944949228695021570000013405046389295765937_);fill:#E6E2DB;" width="115.54" height="2.84"/>
				
					<rect x="6.23" y="57.39" style="clip-path:url(#SVGID_00000183944949228695021570000013405046389295765937_);fill:#E5E1DA;" width="115.54" height="2.84"/>
				
					<rect x="6.23" y="60.23" style="clip-path:url(#SVGID_00000183944949228695021570000013405046389295765937_);fill:#E4E0D9;" width="115.54" height="2.84"/>
				
					<rect x="6.23" y="63.08" style="clip-path:url(#SVGID_00000183944949228695021570000013405046389295765937_);fill:#E4DFD8;" width="115.54" height="2.84"/>
				
					<rect x="6.23" y="65.92" style="clip-path:url(#SVGID_00000183944949228695021570000013405046389295765937_);fill:#E3DED6;" width="115.54" height="2.84"/>
				
					<rect x="6.23" y="68.76" style="clip-path:url(#SVGID_00000183944949228695021570000013405046389295765937_);fill:#E2DDD5;" width="115.54" height="2.84"/>
				
					<rect x="6.23" y="71.6" style="clip-path:url(#SVGID_00000183944949228695021570000013405046389295765937_);fill:#E1DCD4;" width="115.54" height="2.84"/>
				
					<rect x="6.23" y="74.45" style="clip-path:url(#SVGID_00000183944949228695021570000013405046389295765937_);fill:#E1DCD3;" width="115.54" height="2.84"/>
				
					<rect x="6.23" y="77.29" style="clip-path:url(#SVGID_00000183944949228695021570000013405046389295765937_);fill:#E0DBD2;" width="115.54" height="2.84"/>
				
					<rect x="6.23" y="80.13" style="clip-path:url(#SVGID_00000183944949228695021570000013405046389295765937_);fill:#DFDAD1;" width="115.54" height="2.84"/>
				
					<rect x="6.23" y="82.97" style="clip-path:url(#SVGID_00000183944949228695021570000013405046389295765937_);fill:#DED9D0;" width="115.54" height="2.84"/>
				
					<rect x="6.23" y="85.81" style="clip-path:url(#SVGID_00000183944949228695021570000013405046389295765937_);fill:#DED8CF;" width="115.54" height="2.84"/>
				
					<rect x="6.23" y="88.66" style="clip-path:url(#SVGID_00000183944949228695021570000013405046389295765937_);fill:#DDD7CE;" width="115.54" height="2.84"/>
				
					<rect x="6.23" y="91.5" style="clip-path:url(#SVGID_00000183944949228695021570000013405046389295765937_);fill:#DCD7CD;" width="115.54" height="2.84"/>
				
					<rect x="6.23" y="94.34" style="clip-path:url(#SVGID_00000183944949228695021570000013405046389295765937_);fill:#DCD6CC;" width="115.54" height="2.84"/>
				
					<rect x="6.23" y="97.18" style="clip-path:url(#SVGID_00000183944949228695021570000013405046389295765937_);fill:#DBD5CB;" width="115.54" height="2.84"/>
				
					<rect x="6.23" y="100.02" style="clip-path:url(#SVGID_00000183944949228695021570000013405046389295765937_);fill:#DAD4CA;" width="115.54" height="2.84"/>
				
					<rect x="6.23" y="102.87" style="clip-path:url(#SVGID_00000183944949228695021570000013405046389295765937_);fill:#D9D3C9;" width="115.54" height="2.84"/>
				
					<rect x="6.23" y="105.71" style="clip-path:url(#SVGID_00000183944949228695021570000013405046389295765937_);fill:#D9D2C8;" width="115.54" height="2.84"/>
				
					<rect x="6.23" y="108.55" style="clip-path:url(#SVGID_00000183944949228695021570000013405046389295765937_);fill:#D8D1C7;" width="115.54" height="2.84"/>
				
					<rect x="6.23" y="111.39" style="clip-path:url(#SVGID_00000183944949228695021570000013405046389295765937_);fill:#D7D1C6;" width="115.54" height="2.84"/>
				
					<rect x="6.23" y="114.23" style="clip-path:url(#SVGID_00000183944949228695021570000013405046389295765937_);fill:#D6D0C5;" width="115.54" height="2.84"/>
				
					<rect x="6.23" y="117.08" style="clip-path:url(#SVGID_00000183944949228695021570000013405046389295765937_);fill:#D6CFC4;" width="115.54" height="2.84"/>
				
					<rect x="6.23" y="119.92" style="clip-path:url(#SVGID_00000183944949228695021570000013405046389295765937_);fill:#D5CEC3;" width="115.54" height="2.84"/>
				
					<rect x="6.23" y="122.76" style="clip-path:url(#SVGID_00000183944949228695021570000013405046389295765937_);fill:#D5CEC3;" width="115.54" height="0.87"/>
			</g>
		</g>
	</g>
	<g>
		<g>
			<path class="st125" d="M88.68,72.95c-2.44-0.97-4.04-3.34-4.04-5.97c-0.01-2.64,1.59-5.01,4.04-5.99
				c0.78-0.31,1.41-0.92,1.75-1.69c0.35-0.77,0.37-1.66,0.07-2.45c-1.07-2.81-2.58-5.43-4.47-7.76c-1.1-1.36-3.12-1.58-4.48-0.5
				c-2.07,1.65-4.93,1.86-7.22,0.53l-0.03-0.02c-2.3-1.31-3.55-3.9-3.17-6.51c0.25-1.73-0.95-3.36-2.68-3.63
				c-2.97-0.47-5.99-0.46-8.96,0.02c-1.73,0.28-2.92,1.9-2.66,3.64c0.38,2.61-0.87,5.19-3.15,6.51c-2.27,1.32-5.13,1.13-7.2-0.5
				c-1.39-1.09-3.4-0.86-4.51,0.51c-1.88,2.33-3.38,4.95-4.46,7.75c-0.31,0.79-0.28,1.68,0.07,2.45c0.34,0.77,0.98,1.38,1.76,1.69
				c1.73,0.7,3.08,2.11,3.69,3.87c0.61,1.76,0.43,3.71-0.5,5.33c-0.72,1.25-1.85,2.23-3.19,2.77c-1.63,0.65-2.43,2.49-1.81,4.13
				c1.07,2.81,2.58,5.43,4.48,7.76c1.1,1.36,3.12,1.58,4.48,0.5c2.07-1.64,4.93-1.85,7.22-0.53c2.29,1.32,3.54,3.9,3.16,6.51
				c-0.25,1.73,0.95,3.36,2.68,3.63c2.97,0.47,5.99,0.47,8.96-0.01c0.84-0.13,1.59-0.6,2.08-1.29c0.49-0.68,0.7-1.53,0.58-2.36
				c-0.37-2.61,0.88-5.18,3.16-6.49c2.28-1.32,5.13-1.12,7.2,0.51c1.39,1.09,3.4,0.87,4.51-0.51c1.88-2.33,3.38-4.93,4.45-7.72
				C91.13,75.46,90.32,73.61,88.68,72.95z M64.01,76.96c-5.51,0-9.98-4.47-9.98-9.98c0-5.51,4.47-9.98,9.98-9.98
				c5.51,0,9.98,4.47,9.98,9.98C73.99,72.49,69.52,76.96,64.01,76.96z"/>
			<path class="st125" d="M66.75,60.07c-0.79-0.28-1.63-0.42-2.47-0.42c-4.14,0-7.51,3.37-7.51,7.51c0,1.55,0.47,3.03,1.35,4.3
				c0.2,0.29,0.52,0.44,0.84,0.44c0.2,0,0.41-0.06,0.59-0.18c0.46-0.33,0.58-0.97,0.25-1.43c-0.64-0.92-0.98-1.99-0.98-3.12
				c0-3.01,2.45-5.45,5.45-5.45c0.62,0,1.22,0.1,1.8,0.3c0.54,0.19,1.12-0.1,1.31-0.63C67.57,60.85,67.29,60.26,66.75,60.07z"/>
		</g>
		<g>
			<path class="st125" d="M20.7,40.7h6.4c0.7,0,1.28-0.57,1.28-1.28l0.01-6.55c0-0.32,0.26-0.58,0.58-0.58h70.04
				c0.32,0,0.58,0.26,0.58,0.58v6.53c0,0.7,0.57,1.28,1.27,1.28l6.42,0.02c0.3-0.03,0.66-0.13,0.91-0.37
				c0.24-0.24,0.38-0.56,0.38-0.91l0.01-25.12c0-0.92-0.75-1.68-1.67-1.68l-9.89-0.01c0,0,0,0,0,0c-0.92,0-1.68,0.75-1.68,1.67
				l-0.01,9.32c0,0.29-0.23,0.52-0.52,0.52H71.08c-0.29,0-0.52-0.23-0.52-0.52V14.3c0-0.92-0.75-1.68-1.68-1.68l-9.78-0.01
				c0,0,0,0,0,0c-0.92,0-1.68,0.75-1.68,1.67l-0.01,9.32c0,0.29-0.23,0.52-0.52,0.52H33.17c-0.29,0-0.52-0.23-0.52-0.52V14.3
				c0-0.92-0.75-1.68-1.68-1.68l-9.87-0.01c0,0,0,0,0,0c-0.45,0-0.87,0.17-1.18,0.49c-0.32,0.32-0.49,0.74-0.49,1.19l-0.01,25.13
				C19.42,40.13,19.99,40.7,20.7,40.7z"/>
			<path class="st125" d="M106.58,46.05H89.96l0.94,1.27c1.44,1.96,2.67,4.08,3.65,6.29l0.21,0.48l4.85-0.08v22.01
				c0,6.44-3.27,12.33-8.75,15.76l-3.15,2.02c-0.3,0.2-0.7,0.2-1,0.01l-8.5-5.33l-0.29,0.05c-0.5,0.08-0.93,0.22-1.3,0.43
				c-1.31,0.75-1.71,2.18-1.8,3.7c-0.18,3.07,0.06,3.94,0.06,3.94l4.22,2.61l-2.62,1.63c-3.39,2.11-7.91,4.93-8.09,5.05l-0.22,0.12
				c-2.27,1.44-6.06,1.45-8.42-0.05l-10.86-6.75l4.01-2.63c0,0,0.48-1.51,0.34-3.88c-0.09-1.53-0.49-2.96-1.8-3.71
				c-0.4-0.23-0.87-0.38-1.41-0.44l-0.28-0.03l-8.47,5.32c-0.3,0.19-0.69,0.19-1,0l-3.18-2.03c-5.46-3.43-8.72-9.31-8.72-15.75
				l-0.08-21.93l4.96,0.01l0.21-0.48c0.98-2.22,2.22-4.34,3.66-6.31l0.94-1.27H21.41c-1.1,0-1.99,0.89-1.99,1.99v27.79
				c0,9.38,4.74,17.97,12.69,22.97l22.05,13.82c2.9,1.81,6.31,2.77,9.85,2.77c3.56,0,6.95-0.96,9.81-2.77L95.87,98.8
				c7.96-4.99,12.71-13.58,12.71-22.97V48.04C108.57,46.94,107.68,46.05,106.58,46.05z"/>
		</g>
	</g>
</g>
</svg>
